HIERARCHY
ROOT Hips
{
	OFFSET 0.00000 0.00000 0.00000
	CHANNELS 6 Xposition Yposition Zposition Zrotation Yrotation Xrotation 
	JOINT LHipJoint
	{
		OFFSET 0 0 0
		CHANNELS 3 Zrotation Yrotation Xrotation
		JOINT LeftHip
		{
			OFFSET 1.37959 -1.78713 0.86582
			CHANNELS 3 Zrotation Yrotation Xrotation
			JOINT LeftKnee
			{
				OFFSET 2.54611 -6.99539 0.00000
				CHANNELS 3 Zrotation Yrotation Xrotation
				JOINT LeftAnkle
				{
					OFFSET 2.59951 -7.14211 0.00000
					CHANNELS 3 Zrotation Yrotation Xrotation
					JOINT LeftToe
					{
						OFFSET 0.18493 -0.50810 1.96120
						CHANNELS 3 Zrotation Yrotation Xrotation
						End Site
						{
							OFFSET 0.00000 -0.00000 1.02054
						}
					}
				}
			}
		}
	}
	JOINT RHipJoint
	{
		OFFSET 0 0 0
		CHANNELS 3 Zrotation Yrotation Xrotation
		JOINT RightHip
		{
			OFFSET -1.33564 -1.78713 0.86582
			CHANNELS 3 Zrotation Yrotation Xrotation
			JOINT RightKnee
			{
				OFFSET -2.52705 -6.94302 0.00000
				CHANNELS 3 Zrotation Yrotation Xrotation
				JOINT RightAnkle
				{
					OFFSET -2.55964 -7.03257 0.00000
					CHANNELS 3 Zrotation Yrotation Xrotation
					JOINT RightToe
					{
						OFFSET -0.25804 -0.70896 2.12109
						CHANNELS 3 Zrotation Yrotation Xrotation
						End Site
						{
							OFFSET -0.00000 -0.00000 1.11821
						}
					}
				}
			}
		}
	}
	JOINT lowerback
	{
		OFFSET 0 0 0
		CHANNELS 3 Zrotation Yrotation Xrotation
		JOINT Chest
		{
			OFFSET -0.02031 2.24248 -0.18900
			CHANNELS 3 Zrotation Yrotation Xrotation
			JOINT Chest2
			{
				OFFSET 0.08342 2.24689 -0.03799
				CHANNELS 3 Zrotation Yrotation Xrotation
				JOINT lowerneck
				{
					OFFSET 0 0 0
					CHANNELS 3 Zrotation Yrotation Xrotation
					JOINT Neck
					{
						OFFSET -0.11607 1.55844 0.24628
						CHANNELS 3 Zrotation Yrotation Xrotation
						JOINT Head
						{
							OFFSET 0.06877 1.60174 -0.17013
							CHANNELS 3 Zrotation Yrotation Xrotation
							End Site
							{
								OFFSET 0.03358 1.61266 -0.08543
							}
						}
					}
				}
				JOINT LeftCollar
				{
					OFFSET 0 0 0
					CHANNELS 3 Zrotation Yrotation Xrotation
					JOINT LeftShoulder
					{
						OFFSET 3.47537 0.55866 -0.72348
CHANNELS 3 Zrotation Xrotation Yrotation
						JOINT LeftElbow
						{
OFFSET 0 -5.381540 0.000000
CHANNELS 3 Zrotation Xrotation Yrotation
							JOINT LeftWrist
							{
OFFSET 0 -3.333120 0.000000
CHANNELS 3 Zrotation Xrotation Yrotation
								JOINT lhand
								{
									OFFSET 0 0 0
CHANNELS 3 Zrotation Xrotation Yrotation
									JOINT LFingers
									{
OFFSET 0 -0.710790 0.000000
CHANNELS 3 Zrotation Xrotation Yrotation
										End Site
										{
OFFSET 0 -0.573060 0.000000
										}
									}
								}
								JOINT LThumb
								{
OFFSET 0 0.000000 0.000000
CHANNELS 3 Zrotation Xrotation Yrotation
									End Site
									{
OFFSET 0 -0.581810 0.581810
									}
								}
							}
						}
					}
				}
				JOINT RightCollar
				{
					OFFSET 0 0 0
					CHANNELS 3 Zrotation Yrotation Xrotation
					JOINT RightShoulder
					{
						OFFSET -3.27844 0.90739 -0.35708
CHANNELS 3 Zrotation Xrotation Yrotation
						JOINT RightElbow
						{
OFFSET 0 -5.169540 0.000000
CHANNELS 3 Zrotation Xrotation Yrotation
							JOINT RightWrist
							{
OFFSET 0 -3.382870 0.000000
CHANNELS 3 Zrotation Xrotation Yrotation
								JOINT rhand
								{
									OFFSET 0 0 0
CHANNELS 3 Zrotation Xrotation Yrotation
									JOINT RFingers
									{
OFFSET 0 -0.817970 0.000000
CHANNELS 3 Zrotation Xrotation Yrotation
										End Site
										{
OFFSET 0 -0.659470 0.000000
										}
									}
								}
								JOINT RThumb
								{
OFFSET 0 0.000000 0.000000
CHANNELS 3 Zrotation Xrotation Yrotation
									End Site
									{
OFFSET 0 -0.669530 0.669530
									}
								}
							}
						}
					}
				}
			}
		}
	}
}
MOTION
Frames: 8
Frame Time: .0083333
0.8967 17.4938 -6.6276 1.0844 2.8261 -1.6085 0.0000 0.0000 0.0000 -23.1198 -2.8207 -4.2822 2.1241 9.1199 26.1712 1.0439 -3.7876 -18.4166 0.4668 -4.3822 -12.1545 0.0000 0.0000 0.0000 14.4009 -0.3423 -27.5625 -8.4965 -16.4725 54.3319 -0.4035 -6.4843 -16.1102 -0.0759 -1.7770 4.8898 -5.7109 1.7840 4.1515 -0.8678 2.0979 0.4758 2.1799 1.0885 -2.0104 -2.3128 11.0853 -12.1720 -8.5240 18.2034 21.8913 -0.3321 7.4235 9.5873 -0.0000 -0.0000 0.0000 9.9059 -30.2167 -13.2527 59.4464 -56.1606 33.8809 -2.2822 -29.8978 -31.2955 0.0 0.0 0.0 -7.1250 0.0 0.0 -36.9874 57.1866 12.1607 -0.0000 -0.0000 0.0000 -31.5452 -19.86 19.5857 -105.5622 -59.0648 -73.435 -12.9955 -40.5258 -25.962 0.0 0.0 0.0 7.1250 0.0 -0.0 10.1367 3.782 9.6002
0.9090 17.4850 -6.5081 2.2967 3.0169 -1.3570 0.0000 0.0000 0.0000 -24.5401 -2.5534 -3.7845 2.0097 8.8862 25.4399 1.0823 -4.2251 -18.7091 0.1375 -2.3897 -6.5839 0.0000 0.0000 0.0000 13.0043 -0.2433 -28.3641 -8.0339 -16.1441 52.6847 -0.4461 -6.4437 -16.6076 -0.0997 -2.0364 5.6062 -7.0851 1.6612 4.1734 -1.0734 1.8633 0.4441 2.7478 0.9842 -2.0739 -2.4032 11.3319 -12.8813 -8.3118 18.6066 22.1718 -0.1450 7.5748 9.8020 0.0000 -0.0000 0.0000 11.3408 -31.9244 -11.1832 57.1995 -55.5163 32.0216 -2.1345 -31.5058 -31.7407 0.0 0.0 0.0 -7.1250 0.0 0.0 -37.2591 57.5755 12.6314 0.0000 -0.0000 0.0000 -33.8108 -19.9483 16.3723 -105.2865 -59.0984 -73.1984 -13.2267 -42.0068 -25.8695 0.0 0.0 0.0 7.1250 0.0 -0.0 9.9921 3.8436 9.4472
0.9197 17.4864 -6.3760 1.8580 3.0136 -1.5617 0.0000 0.0000 0.0000 -24.0511 -2.0142 -3.0403 1.9492 8.7595 25.0460 1.2286 -5.5921 -19.8495 0.1111 2.1494 5.9187 0.0000 0.0000 0.0000 13.6208 -0.0314 -28.3411 -7.3896 -15.6514 50.3328 -0.4153 -7.0921 -16.7974 -0.0669 -1.6689 4.5916 -6.7367 1.5820 4.4292 -0.8501 1.7601 0.5041 2.7858 0.9315 -2.1412 -2.2868 11.5745 -13.3786 -8.2646 18.9836 22.4061 -0.0552 7.7234 9.9982 0.0000 0.0000 0.0000 12.7681 -33.3174 -9.1772 55.0662 -54.8451 30.2701 -2.3665 -33.5865 -31.6835 0.0 0.0 0.0 -7.1250 0.0 0.0 -37.4239 57.48 12.609 0.0000 0.0000 0.0000 -36.1047 -20.0233 13.1871 -104.5607 -59.1835 -72.5753 -13.9285 -43.4973 -25.8957 0.0 0.0 0.0 7.1250 0.0 -0.0 9.5700 3.7227 9.058
0.9220 17.5003 -6.2336 0.7036 3.1072 -1.7230 0.0000 0.0000 0.0000 -22.7089 -1.4646 -2.2615 1.8604 8.5690 24.4561 1.2718 -6.4222 -20.1647 0.2943 3.4887 9.6423 0.0000 0.0000 0.0000 15.0995 0.2126 -28.1958 -6.7718 -15.1367 48.0059 -0.3787 -7.6859 -16.8971 -0.0455 -1.3774 3.7879 -5.6095 1.5076 4.5100 -0.4982 1.7173 0.4672 2.5201 0.9044 -2.1977 -2.1625 11.8018 -13.1029 -8.2593 19.2285 22.2151 -0.0619 7.8736 9.8971 -0.0000 -0.0000 0.0000 14.0707 -34.5939 -7.3746 53.0630 -54.1586 28.6392 -2.8927 -35.4519 -32.0955 0.0 0.0 0.0 -7.1250 0.0 0.0 -38.3046 57.6951 13.1744 -0.0000 -0.0000 0.0000 -38.2507 -19.6784 9.801 -103.9037 -59.2568 -72.0109 -13.9494 -44.5022 -25.6997 0.0 0.0 0.0 7.1250 0.0 -0.0 9.5455 3.9158 8.9994
0.9346 17.5213 -6.1021 0.7342 3.4469 -1.4289 0.0000 0.0000 0.0000 -22.7907 -1.3656 -1.8796 1.7833 8.3993 23.9337 1.1659 -5.5133 -19.3258 0.0136 -0.7531 -2.0698 0.0000 0.0000 0.0000 15.0991 0.1552 -28.6946 -6.1587 -14.5803 45.6152 -0.3208 -7.9854 -16.4627 -0.0347 -1.2026 3.3064 -5.6062 1.2803 4.4176 -0.5141 1.4141 0.2805 2.5222 0.7598 -2.3124 -1.9617 12.0650 -12.7652 -8.3497 19.4867 21.7722 -0.1201 8.0449 9.7144 -0.0000 0.0000 0.0000 15.7832 -36.0952 -5.0624 50.3616 -53.1403 26.4632 -3.2563 -36.4229 -32.7371 0.0 0.0 0.0 -7.1250 0.0 0.0 -39.2662 58.1213 13.9957 -0.0000 0.0000 0.0000 -40.3021 -19.5457 6.6379 -102.8615 -59.3656 -71.1147 -13.4887 -45.2859 -25.5834 0.0 0.0 0.0 7.1250 0.0 -0.0 9.8175 4.094 9.2306
0.9413 17.5316 -5.9828 1.2350 3.4991 -1.2395 0.0000 0.0000 0.0000 -23.3683 -1.2757 -1.3605 1.7107 8.2355 23.4317 1.1049 -4.5239 -18.8774 0.5278 -4.6555 -12.9287 0.0000 0.0000 0.0000 14.5913 0.5736 -29.0452 -5.5661 -13.9942 43.2144 -0.2376 -8.5259 -15.9322 -0.0232 -0.9825 2.7007 -6.1121 1.1990 4.5466 -0.6797 1.2615 0.1448 2.6405 0.6965 -2.5200 -1.5611 12.2907 -12.5074 -8.5622 19.6790 21.2732 -0.2482 8.1865 9.5603 0.0000 -0.0000 0.0000 17.7364 -37.6949 -2.8709 47.2794 -51.8375 24.0179 -3.0513 -36.4902 -32.8183 0.0 0.0 0.0 -7.1250 0.0 0.0 -39.1545 58.2302 14.0534 0.0000 -0.0000 0.0000 -42.3315 -19.5103 3.5049 -101.3323 -59.5091 -69.7979 -13.6531 -46.5399 -25.978 0.0 0.0 0.0 7.1250 0.0 -0.0 9.7413 3.678 9.2331
0.9360 17.5171 -5.8560 1.5202 3.4899 -1.1651 0.0000 0.0000 0.0000 -23.6404 -1.0989 -0.6066 1.6100 8.0016 22.7188 1.1041 -4.4158 -18.8818 0.6777 -5.2639 -14.6628 0.0000 0.0000 0.0000 14.4095 1.1448 -29.0063 -5.0112 -13.3964 40.8711 -0.1996 -8.8659 -15.7923 -0.0349 -1.2057 3.3150 -6.5300 1.2436 4.5265 -0.7230 1.3022 0.2084 2.8275 0.7180 -2.4553 -1.4562 12.4291 -12.8030 -8.4769 19.8334 21.1995 -0.1957 8.2669 9.5941 0.0000 -0.0000 0.0000 19.6708 -39.667 -1.064 43.9738 -50.2557 21.4467 -2.3764 -35.9293 -32.5191 0.0 0.0 0.0 -7.1250 0.0 0.0 -38.2276 58.1433 13.5697 0.0000 -0.0000 0.0000 -44.4947 -19.045 0.0698 -99.8237 -59.6322 -68.497 -14.5411 -48.4022 -27.1097 0.0 0.0 0.0 7.1250 0.0 -0.0 9.2838 2.4222 9.0036
0.9367 17.5082 -5.7139 1.5628 3.7546 -0.9492 0.0000 0.0000 0.0000 -23.6274 -0.7969 -0.0260 1.5069 7.7530 21.9663 1.1014 -4.6983 -18.8292 0.6518 -5.1644 -14.3780 0.0000 0.0000 0.0000 14.4701 1.1674 -29.0958 -4.4635 -12.7528 38.4502 -0.1702 -8.8592 -15.3717 -0.0462 -1.3878 3.8165 -6.7067 1.1328 4.1445 -0.6301 1.1841 0.3222 3.0387 0.6490 -2.1169 -1.6512 12.5491 -13.1245 -8.3301 20.0025 21.0879 -0.0817 8.3408 9.5828 -0.0000 -0.0000 0.0000 21.7077 -41.5263 1.0035 40.8789 -48.5821 19.0957 -2.223 -35.3974 -32.5918 0.0 0.0 0.0 -7.1250 0.0 0.0 -38.1539 58.2345 13.6247 -0.0000 -0.0000 0.0000 -46.8426 -18.5326 -3.2402 -98.0097 -59.7562 -66.9309 -15.1918 -50.0111 -27.9437 0.0 0.0 0.0 7.1250 0.0 -0.0 8.9614 1.4904 8.8349
